HIERARCHY
ROOT Hips
{
	OFFSET 0.000000 0.000000 0.000000 
	CHANNELS 6 Xposition Yposition Zposition Yrotation Zrotation Xrotation 
	JOINT Lumbar
	{
		OFFSET 0.000000 0.000000 0.000000 
		CHANNELS 3 Zrotation Xrotation Yrotation
		JOINT Neck
		{
			OFFSET 0.000000 0.445665 0.000000 
			CHANNELS 3 Zrotation Xrotation Yrotation
			End Site
			{
				OFFSET 0.000000 0.227535 0.000000 
			}
		}
		JOINT RightShoulder
		{
			OFFSET 0.019635 0.377685 0.194865 
			CHANNELS 3 Zrotation Xrotation Yrotation
			JOINT RightElbow
			{
				OFFSET 0.000000 -0.243375 0.000000 
				CHANNELS 2 Zrotation Yrotation
				JOINT RightWrist
				{
					OFFSET 0.000000 -0.264825 0.000000 
					CHANNELS 2 Zrotation Xrotation
					End Site
					{
						OFFSET 0.006600 -0.176220 0.000990 
					}
				}
			}
		}
		JOINT LeftShoulder
		{
			OFFSET 0.019635 0.377685 -0.194865 
			CHANNELS 3 Zrotation Xrotation Yrotation
			JOINT LeftElbow
			{
				OFFSET 0.000000 -0.243375 0.000000 
				CHANNELS 2 Zrotation Yrotation
				JOINT LeftWrist
				{
					OFFSET 0.000000 -0.264825 0.000000 
					CHANNELS 2 Zrotation Xrotation
					End Site
					{
						OFFSET 0.006600 -0.176220 -0.000990 
					}
				}
			}
		}
	}
	JOINT RightHip
	{
		OFFSET 0.052140 -0.069960 0.075570 
		CHANNELS 3 Zrotation Xrotation Yrotation
		JOINT RightKnee
		{
			OFFSET 0.000000 -0.402270 0.000000 
			CHANNELS 1 Zrotation
			JOINT RightAnkle
			{
				OFFSET 0.000000 -0.404085 0.000000 
				CHANNELS 3 Zrotation Xrotation Yrotation
				End Site
				{
					OFFSET 0.204105 -0.089430 0.008415 
				}
			}
		}
	}
	JOINT LeftHip
	{
		OFFSET 0.052140 -0.069960 -0.075570 
		CHANNELS 3 Zrotation Xrotation Yrotation
		JOINT LeftKnee
		{
			OFFSET 0.000000 -0.402270 0.000000 
			CHANNELS 1 Zrotation
			JOINT LeftAnkle
			{
				OFFSET 0.000000 -0.404085 0.000000 
				CHANNELS 3 Zrotation Xrotation Yrotation
				End Site
				{
					OFFSET 0.204105 -0.089430 -0.008415 
				}
			}
		}
	}
}
MOTION
Frames: 22
Frame Time: 0.02
0.00223 9e-05 5e-05 175.81899 -44.26375 -0.44725 53.70548 1.4715 2.72631 -2.44949 -9.36785 -0.43257 134.17065 -79.84595 -82.48496 16.29438 99.60367 -7.35793 -6.74994 133.74499 72.45899 90.04859 7.73313 -90.84239 -8.49254 7.99936 50.90935 0.42997 -5.58534 -20.23515 -8.19998 -5.28021 -3.52385 54.05576 2.73037 6.82408 -23.96981 -8.85573 4.62835 3.20106
0.00188 6e-05 8e-05 175.79172 -44.25659 -0.4407 53.77701 1.47091 2.7068 -2.49368 -9.36969 -0.43289 134.44998 -79.86118 -82.16136 16.34311 99.58456 -7.34135 -6.78328 134.85641 72.51142 90.04062 7.8863 -89.8776 -7.88257 8.1237 50.8575 0.34066 -6.03854 -20.20782 -8.15679 -5.23139 -3.4955 54.02664 2.65877 6.53449 -23.97045 -8.88061 4.65864 3.22054
0.00152 4e-05 0.00011 175.76452 -44.24941 -0.43415 53.84838 1.47033 2.68737 -2.53785 -9.37151 -0.43322 134.72945 -79.87639 -81.83757 16.39166 99.56543 -7.32484 -6.81649 135.96517 72.56373 90.03219 8.03903 -88.91581 -7.27435 8.24767 50.80572 0.25166 -6.48997 -20.18054 -8.11377 -5.18274 -3.46726 53.99751 2.58727 6.24535 -23.97109 -8.90545 4.68889 3.23999
0.00117 1e-05 0.00013 175.73732 -44.24227 -0.42762 53.9197 1.46974 2.66793 -2.58191 -9.37335 -0.43354 135.00812 -79.89158 -81.51473 16.44023 99.54637 -7.30831 -6.84972 137.07331 72.616 90.02415 8.19174 -87.954 -6.66624 8.37163 50.75401 0.16263 -6.9417 -20.15329 -8.07072 -5.13407 -3.439 53.96847 2.51587 5.95659 -23.97172 -8.93025 4.7191 3.25941
0.00081 -2e-05 0.00016 175.71006 -44.23516 -0.42111 53.99118 1.46911 2.64841 -2.62596 -9.37522 -0.43386 135.28616 -79.90677 -81.19264 16.48899 99.52735 -7.29171 -6.88307 138.18375 72.66836 90.01681 8.34487 -86.98919 -6.05645 8.49595 50.70226 0.07329 -7.39538 -20.12599 -8.02748 -5.08522 -3.41062 53.93945 2.44444 5.66752 -23.97235 -8.95508 4.74934 3.27886
0.00046 -4e-05 0.00018 175.68299 -44.22783 -0.41449 54.06229 1.46866 2.62914 -2.67038 -9.37693 -0.43418 135.56858 -79.92203 -80.86538 16.53709 99.508 -7.27537 -6.916 139.28886 72.72057 90.00615 8.49673 -86.03378 -5.45157 8.61916 50.65042 -0.01499 -7.84209 -20.09875 -7.98492 -5.03701 -3.38266 53.9101 2.37279 5.37827 -23.97302 -8.97994 4.77961 3.29831
0.00011 -7e-05 0.00021 175.65556 -44.22095 -0.40808 54.13406 1.46786 2.60941 -2.71398 -9.37898 -0.43451 135.84215 -79.93713 -80.54856 16.58645 99.48933 -7.25855 -6.94975 140.40364 72.77302 90.002 8.651 -85.06057 -4.83747 8.74449 50.59883 -0.1053 -8.3022 -20.07144 -7.94105 -4.98755 -3.35389 53.88147 2.30166 5.08975 -23.97361 -9.00472 4.80978 3.31773
-0.00025 -0.0001 0.00024 175.62847 -44.21366 -0.40148 54.20525 1.46737 2.59009 -2.75838 -9.38067 -0.43483 136.12335 -79.95236 -80.22268 16.63467 99.47006 -7.24212 -6.98273 141.5092 72.82524 89.99216 8.80304 -84.10366 -4.23187 8.86782 50.54699 -0.19378 -8.75019 -20.04417 -7.89837 -4.93924 -3.32585 53.85216 2.23003 4.80048 -23.97427 -9.02957 4.84004 3.33718
-0.00061 -0.00012 0.00027 175.60176 -44.20583 -0.39465 54.27566 1.46728 2.5713 -2.80363 -9.38209 -0.43515 136.41631 -79.96782 -79.88311 16.68145 99.44993 -7.22637 -7.01481 142.60527 72.87725 89.97403 8.95243 -83.16673 -3.6364 8.98896 50.4949 -0.27988 -9.18251 -20.01701 -7.85723 -4.89234 -3.29876 53.82203 2.15783 4.5104 -23.97502 -9.05452 4.87044 3.35666
-0.00094 -0.00015 0.00028 175.57275 -44.201 -0.38915 54.35032 1.46496 2.54956 -2.84361 -9.38557 -0.43549 136.64895 -79.98218 -79.61443 16.73636 99.43437 -7.20732 -7.05221 143.76137 72.93069 89.99958 9.11732 -82.11499 -2.98185 9.12347 50.44441 -0.37924 -9.70243 -19.98942 -7.80746 -4.83738 -3.26637 53.79666 2.08902 4.22525 -23.97529 -9.07892 4.90014 3.37597
-0.00133 -0.00018 0.00033 175.54867 -44.18992 -0.38085 54.41615 1.46731 2.534 -2.89494 -9.38441 -0.43578 137.00401 -79.99874 -79.20138 16.77421 99.4094 -7.19483 -7.07829 144.78716 72.98096 89.93562 9.24932 -81.30544 -2.45252 9.22925 50.39043 -0.45087 -10.03919 -19.96261 -7.77576 -4.79936 -3.24509 53.76125 2.01302 3.92959 -23.97652 -9.10448 4.93125 3.39563
-0.00187 -0.00021 0.0005 175.53748 -44.16104 -0.36476 54.45637 1.4827 2.53587 -2.97593 -9.37279 -0.4359 137.73597 -80.02255 -78.34618 16.76392 99.35617 -7.20395 -7.07347 145.4817 73.02382 89.60159 9.29183 -81.16719 -2.26538 9.25926 50.32762 -0.44361 -9.85414 -19.93906 -7.7952 -4.80879 -3.25521 53.69787 1.91743 3.60694 -23.98077 -9.13322 4.96657 3.41631
-0.00247 -0.00025 0.0007 175.53133 -44.12602 -0.34589 54.48793 1.50271 2.54386 -3.06859 -9.35611 -0.43596 138.58153 -80.04847 -77.35525 16.73655 99.29378 -7.21899 -7.05711 146.04003 73.06336 89.18214 9.3011 -81.27093 -2.20422 9.25963 50.26118 -0.40893 -9.48832 -19.91612 -7.83251 -4.83508 -3.27633 53.62449 1.81477 3.27429 -23.98591 -9.16305 5.00316 3.43729
-0.00304 -0.00029 0.00089 175.52334 -44.09425 -0.32836 54.52437 1.52046 2.54875 -3.15693 -9.34027 -0.43608 139.3506 -80.07247 -76.45551 16.71812 99.23739 -7.22894 -7.04607 146.64413 73.10345 88.81781 9.32516 -81.25942 -2.08638 9.27182 50.19586 -0.38871 -9.21831 -19.89214 -7.86059 -4.85301 -3.29179 53.55594 1.715 2.94386 -23.99037 -9.19253 5.03902 3.45816
-0.0036 -0.00032 0.00108 175.51357 -44.06052 -0.31049 54.55697 1.53892 2.55501 -3.24119 -9.33055 -0.43609 140.23204 -80.10003 -75.42789 16.6955 99.17389 -7.24901 -7.03518 147.31806 73.14716 88.38474 9.35076 -81.27038 -1.96646 9.2918 50.13264 -0.36031 -8.89199 -19.87128 -7.89329 -4.87382 -3.30999 53.48611 1.61578 2.61951 -23.99598 -9.22179 5.07581 3.47912
-0.0042 -0.00036 0.00128 175.50855 -44.02946 -0.29269 54.59531 1.55698 2.55987 -3.33665 -9.30693 -0.43631 140.89738 -80.1213 -74.63827 16.67653 99.12218 -7.24943 -7.0206 147.81174 73.18305 88.07427 9.36493 -81.29229 -1.88061 9.28743 50.06435 -0.34207 -8.63794 -19.84418 -7.92074 -4.89273 -3.3252 53.41664 1.51476 2.28479 -23.99945 -9.25127 5.1106 3.49973
-0.00486 -0.00039 0.00147 175.51659 -44.00705 -0.27555 54.65336 1.5728 2.55932 -3.46109 -9.24521 -0.4372 140.99159 -80.12001 -74.50817 16.67804 99.10873 -7.19686 -7.00453 147.85566 73.19473 88.1252 9.35807 -81.28119 -1.85887 9.231 49.98158 -0.36196 -8.6477 -19.79876 -7.928 -4.9012 -3.32855 53.3502 1.40164 1.88366 -23.99644 -9.28557 5.14263 3.52139
-0.00556 -0.00041 0.00166 175.52901 -43.98757 -0.25858 54.71715 1.58797 2.55721 -3.59648 -9.16953 -0.4383 140.83863 -80.11366 -74.62869 16.6808 99.10421 -7.1259 -6.98418 147.71517 73.1999 88.30126 9.33993 -81.27365 -1.86697 9.14861 49.89413 -0.39251 -8.73324 -19.74727 -7.92956 -4.90733 -3.32867 53.28454 1.28855 1.47978 -23.99134 -9.31927 5.17205 3.54231
-0.00623 -0.00044 0.00184 175.53861 -43.96694 -0.24173 54.77719 1.60349 2.55576 -3.72592 -9.10122 -0.43928 140.7838 -80.11214 -74.65399 16.68126 99.09664 -7.0589 -6.96175 147.65591 73.2095 88.41986 9.326 -81.26675 -1.86065 9.07422 49.80971 -0.41583 -8.77042 -19.69906 -7.93467 -4.91526 -3.3309 53.21878 1.18134 1.10377 -23.98742 -9.35028 5.20062 3.56218
-0.00692 -0.00047 0.00204 175.55182 -43.94543 -0.22415 54.84181 1.61921 2.55448 -3.85883 -9.02966 -0.44037 140.85759 -80.0981 -74.59322 16.69606 99.09519 -7.00204 -6.95533 147.62338 73.21025 88.54151 9.31675 -81.25784 -1.86189 9.01902 49.72124 -0.44777 -8.85811 -19.64839 -7.93657 -4.92082 -3.3309 53.15162 1.04926 0.61577 -23.98253 -9.39371 5.23775 3.58787
-0.00759 -0.0005 0.00222 175.55859 -43.92643 -0.20791 54.89831 1.63397 2.55269 -3.98829 -8.96005 -0.44129 140.52214 -80.11128 -74.77613 16.67193 99.0698 -6.93045 -6.91544 147.46731 73.23113 88.68319 9.29301 -81.25195 -1.8534 8.91283 49.64025 -0.46526 -8.8634 -19.60173 -7.94329 -4.93036 -3.3345 53.08768 0.96874 0.35955 -23.97921 -9.41128 5.2565 3.6013
-0.00822 -0.00054 0.00235 175.54539 -43.91482 -0.19738 54.93147 1.6491 2.54751 -4.09368 -8.91247 -0.44171 139.82662 -80.17501 -75.53113 16.62627 99.09771 -6.72779 -6.77748 147.21485 73.27908 88.86939 9.25845 -81.24149 -1.80989 8.7201 49.58053 -0.4352 -8.60209 -19.5649 -7.96687 -4.95282 -3.35009 53.03268 1.03352 0.75189 -23.98037 -9.35602 5.22448 3.58067
